<svg width="463" height="244" viewBox="0 0 463 244" fill="none" xmlns="http://www.w3.org/2000/svg">
<path d="M384.905 77.2421L400.36 205.829L266.51 146.52L384.905 77.2421Z" fill="#AC59FF"/>
<rect x="24" width="411" height="188" rx="94" fill="#AC59FF"/>
<rect width="429" height="179" rx="89.5" fill="#5302FF"/>
<path d="M59.8174 58.875L55.1982 116.068L37.4775 116.992V60.0508L59.8174 58.875ZM136.159 89.5293C136.159 93.5326 136.033 97.5218 135.781 101.497C135.529 105.472 135.235 109.462 134.899 113.465L113.315 114.473C113.959 109.602 114.533 104.73 115.037 99.8594C115.569 94.9603 115.835 90.0612 115.835 85.1621C115.835 84.8542 115.821 84.3223 115.793 83.5664C115.765 82.7826 115.709 81.9007 115.625 80.9209C115.569 79.9411 115.471 78.9333 115.331 77.8975C115.219 76.8337 115.051 75.8678 114.827 75C114.631 74.1042 114.379 73.3763 114.071 72.8164C113.763 72.2565 113.399 71.9766 112.979 71.9766C112 71.9766 111.23 72.3545 110.67 73.1104C110.11 73.8382 109.69 74.7201 109.41 75.7559C109.158 76.7917 109.004 77.8555 108.948 78.9473C108.892 80.0111 108.864 80.8789 108.864 81.5508C108.864 82.7266 108.892 83.9023 108.948 85.0781C109.004 86.2539 109.032 87.4577 109.032 88.6895C109.032 93.0286 108.92 97.3538 108.696 101.665C108.5 105.976 108.248 110.301 107.94 114.641L88.0361 115.396C88.68 110.525 89.2399 105.668 89.7158 100.825C90.2197 95.9541 90.4717 91.069 90.4717 86.1699C90.4717 85.862 90.4577 85.3021 90.4297 84.4902C90.4017 83.6784 90.3457 82.7686 90.2617 81.7607C90.2057 80.7529 90.1077 79.7031 89.9678 78.6113C89.8278 77.5195 89.6458 76.5257 89.4219 75.6299C89.2259 74.7061 88.974 73.9502 88.666 73.3623C88.3581 72.7744 87.9801 72.4805 87.5322 72.4805C86.8324 72.4805 86.2445 72.7604 85.7686 73.3203C85.2926 73.8522 84.9007 74.5521 84.5928 75.4199C84.3128 76.2878 84.0889 77.2536 83.9209 78.3174C83.7809 79.3532 83.6689 80.375 83.585 81.3828C83.529 82.3906 83.487 83.3285 83.459 84.1963C83.459 85.0361 83.445 85.666 83.417 86.0859L82.4932 116.74H61.3291C61.777 112.009 62.2249 107.264 62.6729 102.505C63.1488 97.7458 63.5547 93.0007 63.8906 88.2695C64.2546 83.5104 64.5485 78.7513 64.7725 73.9922C64.9964 69.2331 65.1084 64.474 65.1084 59.7148L85.0967 58.875L85.0127 63.7461C85.6286 62.9622 86.3285 62.1784 87.1123 61.3945C87.8962 60.5827 88.722 59.8688 89.5898 59.2529C90.4857 58.609 91.4235 58.0911 92.4033 57.6992C93.4111 57.3073 94.4469 57.1113 95.5107 57.1113C96.8825 57.1113 98.1143 57.2233 99.2061 57.4473C100.298 57.6432 101.278 57.9932 102.146 58.4971C103.041 59.001 103.825 59.7008 104.497 60.5967C105.169 61.4645 105.757 62.5703 106.261 63.9141C107.157 62.9342 108.052 62.0244 108.948 61.1846C109.872 60.3447 110.838 59.6309 111.846 59.043C112.854 58.4271 113.945 57.9512 115.121 57.6152C116.297 57.2793 117.599 57.1113 119.026 57.1113C121.742 57.1113 124.051 57.6432 125.955 58.707C127.859 59.7428 129.44 61.1286 130.7 62.8643C131.988 64.5999 132.982 66.5876 133.682 68.8271C134.41 71.0667 134.955 73.3903 135.319 75.7979C135.683 78.2054 135.907 80.599 135.991 82.9785C136.103 85.3581 136.159 87.5417 136.159 89.5293ZM192.975 114.389L172.146 117.076L169.627 107.586H160.053L157.953 117.076L136.537 114.977L153.25 59.043L176.598 57.8672L192.975 114.389ZM168.115 94.7363L164.924 80.123L161.816 94.7363H168.115ZM255.039 57.9512L254.619 75.7559L242.105 76.2598L238.914 116.068L221.193 116.992L221.277 77.1836L208.764 77.8555L209.268 58.0352L255.039 57.9512ZM304.506 114.389L283.678 117.076L281.158 107.586H271.584L269.484 117.076L248.068 114.977L264.781 59.043L288.129 57.8672L304.506 114.389ZM279.646 94.7363L276.455 80.123L273.348 94.7363H279.646ZM342.215 95.7441L340.451 114.389L305.094 117.16L306.438 57.1953H328.273L325.166 95.7441H342.215ZM395.797 63.7461L377.236 85.834L394.285 114.725L374.801 118.168L362.035 100.867L361.363 117.328L343.895 118L345.238 57.8672L364.807 58.959L363.295 76.2598L375.473 58.707L395.797 63.7461Z" fill="#FFE920"/>
<rect x="54" y="142" width="114.791" height="5" rx="2.5" fill="#FFE920"/>
<path d="M54 132.5C54 131.119 55.1193 130 56.5 130H111.191C112.572 130 113.691 131.119 113.691 132.5C113.691 133.881 112.572 135 111.191 135H56.5C55.1193 135 54 133.881 54 132.5Z" fill="#FFE920"/>
<rect x="321" y="20" width="65" height="6" rx="3" fill="#FFE920"/>
<rect x="265" y="35" width="120.75" height="5" rx="2.5" fill="#FFE920"/>
</svg>
